{
    "asset" : {
        "generator" : "Khronos glTF Blender I/O v1.0.5",
        "version" : "2.0"
    },
    "scene" : 0,
    "scenes" : [
        {
            "name" : "Scene",
            "nodes" : [
                1
            ]
        }
    ],
    "nodes" : [
        {
            "mesh" : 0,
            "name" : "blade",
            "rotation" : [
                1,
                0,
                0,
                0
            ],
            "scale" : [
                -0.23949657380580902,
                -1,
                -0.2415996491909027
            ],
            "translation" : [
                -1.4480068683624268,
                0.1528884768486023,
                0
            ]
        },
        {
            "children" : [
                0
            ],
            "mesh" : 1,
            "name" : "handle",
            "scale" : [
                -4.175425052642822,
                1,
                0.6630567312240601
            ]
        }
    ],
    "meshes" : [
        {
            "name" : "Cube.004",
            "primitives" : [
                {
                    "attributes" : {
                        "POSITION" : 0,
                        "NORMAL" : 1,
                        "TEXCOORD_0" : 2
                    },
                    "indices" : 3
                }
            ]
        },
        {
            "name" : "Cube.001",
            "primitives" : [
                {
                    "attributes" : {
                        "POSITION" : 4,
                        "NORMAL" : 5,
                        "TEXCOORD_0" : 6
                    },
                    "indices" : 7
                }
            ]
        }
    ],
    "accessors" : [
        {
            "bufferView" : 0,
            "componentType" : 5126,
            "count" : 23,
            "max" : [
                3.721299409866333,
                0.6633458733558655,
                0.24695755541324615
            ],
            "min" : [
                -3.721299409866333,
                -0.6633458733558655,
                -0.24695755541324615
            ],
            "type" : "VEC3"
        },
        {
            "bufferView" : 1,
            "componentType" : 5126,
            "count" : 23,
            "type" : "VEC3"
        },
        {
            "bufferView" : 2,
            "componentType" : 5126,
            "count" : 23,
            "type" : "VEC2"
        },
        {
            "bufferView" : 3,
            "componentType" : 5123,
            "count" : 72,
            "type" : "SCALAR"
        },
        {
            "bufferView" : 4,
            "componentType" : 5126,
            "count" : 72,
            "max" : [
                1,
                1,
                1.0000001192092896
            ],
            "min" : [
                -0.7395607233047485,
                -1,
                -1
            ],
            "type" : "VEC3"
        },
        {
            "bufferView" : 5,
            "componentType" : 5126,
            "count" : 72,
            "type" : "VEC3"
        },
        {
            "bufferView" : 6,
            "componentType" : 5126,
            "count" : 72,
            "type" : "VEC2"
        },
        {
            "bufferView" : 7,
            "componentType" : 5123,
            "count" : 204,
            "type" : "SCALAR"
        }
    ],
    "bufferViews" : [
        {
            "buffer" : 0,
            "byteLength" : 276,
            "byteOffset" : 0
        },
        {
            "buffer" : 0,
            "byteLength" : 276,
            "byteOffset" : 276
        },
        {
            "buffer" : 0,
            "byteLength" : 184,
            "byteOffset" : 552
        },
        {
            "buffer" : 0,
            "byteLength" : 144,
            "byteOffset" : 736
        },
        {
            "buffer" : 0,
            "byteLength" : 864,
            "byteOffset" : 880
        },
        {
            "buffer" : 0,
            "byteLength" : 864,
            "byteOffset" : 1744
        },
        {
            "buffer" : 0,
            "byteLength" : 576,
            "byteOffset" : 2608
        },
        {
            "buffer" : 0,
            "byteLength" : 408,
            "byteOffset" : 3184
        }
    ],
    "buffers" : [
        {
            "byteLength" : 3592,
            "uri" : "data:application/octet-stream;base64,"
        }
    ]
}
